<svg preserveAspectRatio="xMidYMid meet" data-bbox="38.991 26.645 299.019 290.844" viewBox="38.991 26.645 299.019 290.844" xmlns="http://www.w3.org/2000/svg" role="presentation" aria-hidden="true">
    <g>
        <path d="M338 172.17c.91 77.6-65.37 146.64-152.04 145.3C104.24 316.21 38.11 250.39 39 170.19c.89-78.63 67.5-144.69 151.96-143.53C272.95 27.77 338.95 93.57 338 172.17zM188.66 31.94C109.51 31.73 44.5 93.9 44.39 171.93c-.11 77.25 64.63 140.27 143.94 140.3 79.77.03 144.39-62.66 144.45-140.19.08-77.68-64.72-140.27-144.12-140.1z" fill="#000000"></path>
        <path d="M227.97 153.77c2.59-4.09 5.19-7.85 7.44-11.82 5.5-9.7 10.85-19.48 16.23-29.25 1.99-3.61 4.15-7.07 7.73-10.35 1.88 5.6 4.11 10.7 5.3 16.03 5.2 23.21 15.53 43.81 32.26 61.21 5.42 5.63 11.26 10.88 16.76 16.45 2.39 2.42 4.4 5.19 6.55 7.82.44.54.75 1.19 1.13 1.79-.1.18-.2.37-.31.55-2.42-.67-4.89-1.21-7.25-2.03-7.49-2.59-13.62-7.27-19.58-12.22-15.37-12.77-26.68-28.25-32.73-47.07-2.05-6.4-3.22-13.06-4.77-19.61-.18-.74-.27-1.5-.4-2.29-3.8 7.86-7.56 15.63-11.38 23.53 2.07 1.16 4.39 2.37 6.6 3.74 4.7 2.91 8.55 6.52 9.9 12.04 1.55 6.33-.71 11.31-6.53 14.55-1.2.67-2.31 1.49-3.46 2.24-.01.24-.03.49-.04.73 2.12 1.07 4.18 2.28 6.37 3.19 3.67 1.54 7.45 2.83 11.14 4.33 4.13 1.68 7.62 4.26 10.65 7.47 2.29 2.42 4.53 4.86 8.25 5.39 1.75.25 2.4 1.81 2.12 3.54-.25 1.53-1.7 2.56-3.46 2.38-3.45-.36-6.28-2.01-8.74-4.29-3.22-3-5.95-6.59-10.22-8.34-4.31-1.77-8.71-3.33-12.99-5.16-2.22-.95-4.4-2.09-6.38-3.45-3.57-2.47-4.08-6.37-1.28-9.64 1.14-1.33 2.64-2.48 4.19-3.37 5.08-2.94 6.24-7.68 2.21-11.96-2.42-2.56-5.7-4.37-8.65-6.43-.97-.68-2.14-1.09-3.27-1.65-14.75 22.05-31.35 42.14-55.97 54.27-.21-.18-.43-.36-.64-.54.64-.84 1.23-1.73 1.94-2.51 6.89-7.64 13.96-15.13 20.66-22.92 5.52-6.42 10.62-13.2 15.89-19.82.32-.41.56-.88.97-1.54-7.79-2.79-13.78-7.62-18.47-14.11-4.58-6.34-8.86-12.8-10.69-20.58-1.31 3.71-2.46 7.48-3.94 11.11-8.88 21.69-21.35 40.9-40.8 55.21-4.83 3.56-10.07 6.42-16.24 7.8 1.13-1.21 2.24-2.45 3.41-3.62 9.09-9.1 17.83-18.46 25.25-28.94 7.12-10.04 12.73-20.86 18.02-31.86 3.42-7.11 6.9-14.18 10.37-21.26.41-.83.9-1.63 1.42-2.4 1.33-1.97 3.03-1.96 4.17.11 2.71 4.94 5.42 9.88 7.96 14.9 3.28 6.46 7.47 12.17 12.94 17.11 3.31 2.99 6.04 6.58 9.02 9.91.39.4.73.87 1.34 1.63z" fill="#000000"></path>
        <path d="M94.78 121.57c.55-.89 1.11-1.78 1.75-2.82-1.1-.45-2.25-.79-3.23-1.38-.52-.31-1.16-1.22-1.02-1.61.22-.6 1.02-1.06 1.66-1.43.37-.21.93-.09 1.4-.18 3.08-.63 3.21-.78 3.45-3.83.1-1.31.17-2.63.39-3.93.08-.5.45-1.16.87-1.35.42-.19 1.26-.05 1.59.26.81.77 1.78 1.63 2.06 2.63.48 1.69 1.65 2.38 3.06 3.08 2.7 1.34 2.77 1.63.5 3.73-1.17 1.08-1.31 2.11-.47 3.27.3.42.98.58 1.47.89 2.29 1.42 4.75 2.64 6.79 4.35 1.21 1.02.11 2.65-1.64 2.71-1.49.06-2.98.12-4.47.25-2.97.26-3.98.95-5.61 3.69 3.04 1.56 6.13 3.05 9.12 4.7 1.4.78 2.66 1.82 3.9 2.83 1.22 1 1.34 2.34.42 3.51-.81 1.02-3.42.44-4.39-.51-2.79-2.75-6.22-4.47-10.27-5.87 0 2.45.21 4.44-.06 6.37-.25 1.77-.79 3.58-1.64 5.16-.68 1.26-1.88 1.48-3.04.02-2-2.51-4.17-4.9-6.38-7.46-1.29.82-2.3 1.71-3.5 2.16-1.64.62-3.21-.27-3.34-2.02-.05-.65 1.05-1.77 1.86-2.04 4.06-1.38 6.69-4.55 9.8-7.22-1.61.35-3.23.64-4.82 1.08-.52.15-1.01.61-1.38 1.04-.9 1.04-1.64 2.22-2.6 3.2-1.29 1.32-2.14 1.18-3.31-.27-1.13-1.39-2.22-2.82-3.45-4.12-.95-1-.71-1.92-.09-2.85.48-.72 1.09-1.34 1.64-2.01 2.88-3.52 2.89-3.56 1.77-8.53-.89.51-1.7.97-2.71 1.55-.09-.57-.3-1.08-.21-1.54.52-2.8 3.69-4.89 6.42-4 1.08.35 2 1.39 2.77 2.29.36.41.24 1.25.25 1.9.02 2.73.01 5.45.01 8.48 1.61-1.43 2.93-2.61 4.25-3.78-.9 1.19-1.79 2.38-2.78 3.69 6.1-.82 7.36-2.18 6.13-6.91-1.08 1.03-2 1.93-2.92 2.82zm-2.63 16.73c1.22.98 1.96 1.76 2.86 2.27 1.57.88 2.91.13 2.93-1.6.02-1.35-.18-2.71-.31-4.57-1.99 1.42-3.6 2.56-5.48 3.9zm16.25-17.06c-1.45-1.54-2.44-2.62-3.45-3.66-.94-.96-1.74-.79-2.01.48-.3 1.42-.36 2.89-.58 4.76 2.23-.58 3.93-1.02 6.04-1.58zm-24.28 8.36v-4.13c-.13-.03-.27-.05-.4-.08-.6 1.17-1.21 2.33-1.9 3.67.92.22 1.49.35 2.3.54z" fill="#000000"></path>
        <path d="M103.64 217.56c-1.3 1.73-2.61 3.44-3.88 5.19-.24.33-.41.81-.37 1.2.02.18.61.33.96.44.18.06.46-.08.6.01 1.18.81 2.34 1.66 3.51 2.49-.97.83-1.87 1.77-2.94 2.44-.82.51-1.86.69-2.8 1.02.03.24.07.47.1.71.73.15 1.46.37 2.2.44 3.05.3 6.14.4 9.16.9 1.15.19 2.26 1.14 3.18 1.97.47.42.79 1.84.63 1.94-.78.47-1.93 1.1-2.63.85-5.72-2.03-11.59-2.68-17.57-1.94-2.86.35-5.67 1.17-8.45 1.95-2.94.83-3.02.88-4.31-1.78 3.51-2.3 7.95-2.05 11.78-3.45l-.12-.6c-1.3-.21-2.61-.35-3.88-.67-.52-.13-1.2-.56-1.34-.99-.11-.33.43-1 .84-1.32 1.09-.85 2.26-1.59 3.63-2.15-.37.49-.73.98-1.42 1.9.92-.38 1.46-.48 1.81-.78.4-.35.96-.95.87-1.3-.11-.42-.79-.78-1.3-.99-.48-.19-1.08-.08-1.6-.22-1.7-.45-2.31-2.42-1.16-3.69.44-.48.9-.95 1.36-1.44-.87-.52-1.61-.97-2.83-1.71 2.92-1.6 5.42-2.98 8.31-4.57-2.83-1.19-6.1 1.11-7.62-2.65-.51.84-.97 1.43-1.28 2.1-2.39 5.17-4.7 10.36-7.13 15.51-.79 1.67-1.89 3.19-2.77 4.81-.51.94-.87 1.96-1.47 3.33-1.19.78-2.35.31-3.01-.84 4.7-9.36 9.25-18.48 13.87-27.57.51-1 1.42-1.79 2.15-2.69.25.06.5.13.75.19l.32 3.39c1.62-1.47 3.06-2.78 4.61-4.19-2.06-.91-3.8-1.67-5.99-2.64 2.85-2.26 5.68-3.21 8.55-4.1.58-.18 1.19-.26 1.79-.38 1.07-.21 2.36-.89 3.16-.53 2.18.96 4.4 2.11 5.19 4.3-1.5 1.56-2.86 2.98-4.33 4.5.92.62 1.66 1.06 2.32 1.59 1.53 1.22 1.49 2.12-.27 2.95-1.45.69-3.02 1.13-4.92 1.83.82.58 1.49 1.05 2.14 1.52 1.49 1.08 1.45 1.62-.12 2.58-1.32.81-2.61 1.67-3.92 2.51.15.28.3.55.46.83 1.74-.72 3.48-1.45 5.22-2.17l-.04-.03z" fill="#000000"></path>
        <path d="M93.69 172.79c-1.54-2.22-2.66-2.23-5.77-.65-3.7 1.87-7.68 2.91-11.85 3.17-.37.02-.75-.15-1.69-.36 1.95-1.25 2.36-3.79 5.17-3.04.39.1.98-.39 1.44-.67 2.44-1.5 4.87-3.01 7.45-4.61-.95-.88-1.63-1.43-2.19-2.07-.26-.3-.51-.9-.37-1.17.16-.31.78-.58 1.17-.55.93.08 1.88.27 2.77.55 1.68.52 4.17-.28 4.93-1.78.2-.39.14-1.29-.1-1.41-.64-.33-1.48-.6-2.17-.5-2.96.45-5.9 1.05-8.84 1.59-.11-.2-.22-.41-.33-.61 1.61-1.34 3.11-2.84 4.86-3.98 2.92-1.91 6-3.6 9.02-5.36.33-.19.77-.35 1.14-.32 1.18.08 4.78 3.51 4.68 4.6-.04.47-.75 1.07-1.3 1.27-1.18.44-2.46.67-3.69 1.27 2.88-.3 4.14 1.8 5.61 3.39 1.22 1.33.75 1.98-.91 2.67-1.83.77-3.58 1.81-5.19 2.97-.38.27-.06 1.47-.06 2.17 3.8-1.45 7.18-2.75 10.57-4.03.38-.14.78-.24 1.18-.3 1.61-.24 3.2-.29 4.12 1.34.55.97-.59 3.63-1.81 4.47-.7.48-1.44.91-2.35 1.47.88 1.1 1.64 1.99 2.34 2.93 1.28 1.72 1.11 2.29-1.01 2.52-2.45.27-4.24 1.54-5.56 2.72 1.17 2.26 2.3 4.28 3.23 6.39.19.44-.22 1.53-.64 1.71-.57.25-1.55.14-2.1-.2-1.94-1.19-3.7-2.69-5.69-3.78-.75-.41-2.14-.38-2.93.03-2.45 1.27-4.76 2.79-7.09 4.27-.65.41-1.17 1.01-1.4 1.23-1.15.22-1.99.27-2.74.56-1.44.56-2.78 1.46-4.26 1.8-.85.2-2.23-.15-2.79-.76-.95-1.04.4-1.49 1.1-2.03.82-.63 1.57-1.46 2.75-.52.22.17.83.07 1.14-.11 4.01-2.29 8-4.62 12.37-7.16-1.54-.81-2.51-1.33-3.56-1.88.46-1.63 1.34-2.36 2.98-2.07.2.04.42.02.6.1 3.92 1.77 6.04-.96 8.43-3.06-.04-.21-.07-.42-.11-.62-2.5.45-5.01.83-7.48 1.37-2.54.55-5.06 1.23-7.58 1.86-.09-.16-.18-.31-.27-.47 1.55-1.43 3.12-2.85 4.78-4.35z" fill="#000000"></path>
        <path d="M154.4 225.43c.92-3.1 2.68-5.5 5.15-7.47 1.04-.83 1.85-2.01 3-2.62 2.68-1.44 5.55-2.53 8.24-3.94 3.42-1.79 7.22-1.4 10.84-1.97 1.72-.27 3.63.11 5.36.54 3.38.84 6.74 1.8 10.02 2.96.99.35 1.67 1.53 2.76 2.58.89-.49 1.77-.52 2.3 1.51.26 1.01 2.13 1.54 3.09 2.47 1.24 1.2 2.37 2.53 3.4 3.91.36.49.58 1.42.35 1.92-.81 1.72-5.58 1.93-6.54.28-2.5-4.32-6.66-6.91-10.99-8.69-3.93-1.61-8.43-2.32-12.85-1.24-2.78.68-5.81 1.03-8.22 2.38-2.84 1.59-5.24 4-7.65 6.25-3.27 3.05-3.73 3.21-8.26 1.13z" fill="#000000"></path>
        <path d="M218.8 225.48c1.84-4.1 4.83-6.77 7.94-9.53 4.23-3.76 9.31-5.28 14.57-6.19 3.23-.56 6.7-.16 10.02.19 2.36.25 4.68 1.03 6.96 1.76 1.44.46 2.81 1.19 4.15 1.9 3.21 1.7 6.23 3.72 8.54 6.5 1.04 1.25 1.67 2.84 2.35 4.34.14.31-.22 1-.56 1.3-1.75 1.56-4.98.87-6.26-1.03-1.85-2.76-4.18-5.21-7.39-6.41-3.24-1.21-6.57-2.52-9.97-2.9-4.68-.51-9.55-.06-13.72 2.28-3.19 1.79-6.43 3.86-8.51 6.96-1.65 2.46-3.58 2.69-6.06 1.62-.62-.26-1.24-.47-2.06-.79z" fill="#000000"></path>
        <path d="M144.72 274.08c1.24-.3 2.07-.53 2.92-.7 3.69-.75 7.29.25 10.75 1.09 3.13.77 6.16 2.33 8.94 4 3.83 2.29 6.99 5.37 9 9.4.68 1.36-.26 1.82-1.28 2.12-1.02.3-2.08.51-3.13.59-.45.03-1.08-.23-1.39-.57-1.57-1.74-3-3.59-4.6-5.3-2.92-3.12-6.84-4.46-10.93-5.05-3.02-.44-6.15-.5-9.19-.24-1.99.17-3.93 1.14-5.84 1.88-1.44.56-2.76 1.43-4.21 1.96-2.88 1.05-4.47 3.33-5.88 5.71-.79 1.33-1.61 2.03-3.22 1.64-.98-.24-2.01-.32-2.99-.55-1.87-.44-2.36-1.35-1.1-2.8 2.26-2.6 4.64-5.14 7.26-7.39 3.78-3.25 8.39-5.03 13.31-6.01.58-.12 1.27.17 1.58.22z" fill="#000000"></path>
        <path d="M301.6 248c-.59-.41-1.92-.99-2.78-1.96-3.35-3.8-7.08-7.2-12.18-8.34-3.55-.8-7.46-1.46-10.96-.86-4.95.86-9.98 2.34-13.62 6.28-1.25 1.35-2.46 2.74-3.79 4-.46.44-1.23.69-1.9.77-.78.1-1.64.04-2.4-.15-.86-.22-2.22-.55-2.35-1.07-.2-.8.24-1.97.82-2.68 1.56-1.92 3.16-3.86 5.06-5.43 2.07-1.72 4.37-3.28 6.8-4.47 4.12-2.02 8.57-3.02 13.23-3.15 4.1-.12 8 .32 11.92 1.72 3.6 1.29 7.07 2.77 9.88 5.21 2.41 2.1 4.41 4.72 6.29 7.32.97 1.34-.76 2.78-4.02 2.81z" fill="#000000"></path>
        <path d="M121.83 247.11c1.81-3.45 3-6.65 6.29-8.54 2.61-1.51 4.89-3.68 7.63-4.86 3.76-1.62 7.67-2.72 12.01-2.79 5.52-.09 10.73 1.05 15.71 2.81 3 1.06 5.56 3.55 8.05 5.69 1.79 1.54 3.1 3.6 4.7 5.37 1.08 1.2.72 1.98-.55 2.65-2.49 1.31-4.2.51-6.11-1.51-2.63-2.79-5.16-5.72-9.21-7.06-3.21-1.06-6.32-2.04-9.72-2.17-3.66-.13-7.06.63-10.53 1.85-4.69 1.65-8.2 4.33-10.72 8.46-.39.63-1.61 1.14-2.42 1.1-1.59-.07-3.15-.58-5.13-1z" fill="#000000"></path>
        <path d="M241.77 246.68c-1.78.6-3.15 1.25-4.58 1.46-.66.1-1.6-.51-2.15-1.06-1.89-1.87-3.44-4.12-5.53-5.7-1.94-1.46-4.42-2.25-6.68-3.32-.24-.11-.57-.04-.78-.18-3.02-1.91-6.44-.85-9.65-1.13-4.87-.42-8.84 2.29-12.89 4.52-2.19 1.21-3.85 2.85-5.03 4.94-.95 1.68-2.24 1.99-4.06 1.62-3.94-.8-4.2-.89-2.16-4.05 1.44-2.22 3.65-3.97 5.52-5.92 1.97-2.05 4.42-3.23 7.07-4.38 3.73-1.61 7.57-2.42 11.51-2.53 3.31-.1 6.7.24 9.93.92 2.91.61 5.94 1.53 8.4 3.08 2.93 1.84 5.43 4.4 7.88 6.87 1.3 1.33 2.08 3.13 3.2 4.86z" fill="#000000"></path>
        <path d="M255.46 259.28c-1.47-.31-3.14-.59-4.76-1.02-4.39-1.15-8.58-.01-12.73 1.1-4.1 1.1-7.59 3.24-10.09 6.72-.72 1-1.59 1.93-2.49 2.79-.31.3-.95.43-1.42.39-1.13-.1-2.25-.35-3.37-.52-1.38-.2-2.11-1.32-1.23-2.43 2.12-2.68 4.15-5.57 6.81-7.66 4.07-3.19 8.9-5.23 14.15-6.03 5.73-.88 11.36-1.09 16.94 1.22 2.4 1 4.97 1.62 7.05 3.23 2.65 2.06 5.77 3.65 7.23 6.91.22.5.98.77 1.21 1.27.34.72.66 1.59.52 2.31-.09.49-.93 1.06-1.54 1.2-3.44.78-3.29.62-5.53-2.12-2.09-2.55-4.4-4.97-7.67-6.27-.63-.25-1-1.07-1.52-1.61-.39-.41-.82-.78-1.23-1.17l-.33 1.69z" fill="#000000"></path>
        <path d="M210.51 272.88c4.97.72 9.95 1.39 14.91 2.19 1.03.17 2.05.69 2.94 1.25 2.18 1.37 4.48 2.65 6.38 4.34 2.27 2 4.33 4.28 6.19 6.66 1.07 1.36.09 2.69-1.65 2.65-.27-.01-.6-.1-.8.02-2.64 1.45-3.71-.59-4.87-2.15-2.27-3.06-5.17-5.28-8.82-6.5-2.34-.78-4.7-1.59-7.12-2.03-1.65-.31-3.44-.16-5.14.05-2.53.3-5.22.4-7.51 1.36-4.07 1.71-8.15 3.61-10.33 7.84-1.01 1.97-5.73 2.7-7.35 1.19-.34-.32-.45-1.25-.23-1.7 1.56-3.28 3.9-5.89 6.91-8.07 3.34-2.42 6.86-4.38 10.89-5.42 1.81-.46 3.63-.88 5.44-1.32.06-.12.11-.24.16-.36z" fill="#000000"></path>
        <path d="M203.32 268.62c-1.83-1.91-3.69-4.43-6.12-6.24-3.74-2.78-8.15-4.13-12.91-4.68-4.51-.53-8.54.89-12.65 2.09-3.1.91-5.55 2.9-7.58 5.34-.95 1.15-1.86 2.34-2.8 3.5-1.02 1.25-6.2.62-6.81-.89-.18-.43.02-1.17.31-1.6 3.77-5.52 8.86-9.68 15.09-12.11 4.1-1.6 8.52-3.03 13.17-1.93.13.03.27.04.4.03 2.45-.19 4.69.49 7.06 1.06 3.6.86 6.74 2.37 9.66 4.33 3.32 2.23 6.5 4.73 8.54 8.24.33.57.39 1.9.09 2.08-.84.49-1.93.6-2.94.76-.64.1-1.32.02-2.51.02z" fill="#000000"></path>
        <path d="M211.4 241.24c3.44.49 7.03.57 10.28 1.61 2.37.76 4.48 2.6 6.41 4.29 2.65 2.31 2.33 3.39-.84 4.99-1.21.61-2.15.3-2.87-.59-5.14-6.34-12.55-4.87-18.08-2.09-.64.32-.93 1.24-1.53 1.71-.69.54-1.69 1.38-2.28 1.21-1.37-.4-3.13-1.07-3.64-2.13-.36-.75.74-2.79 1.74-3.43 2.95-1.9 6.17-3.42 9.32-5.03.37-.19.93-.03 1.4-.03l.09-.51z" fill="#000000"></path>
        <path d="M139.24 292.13c.32.53.6 1 .87 1.45-1.95 2.16-4.96 1.69-6.07-.97-.17-.41.08-1.23.44-1.56 2.3-2.19 4.58-4.27 7.76-5.5 2.75-1.07 5.43-1.34 8.26-1.42 2.34-.07 4.55.08 6.6 1.43 1.39.92 3.13 1.35 4.48 2.31 1.38.98 2.58 2.26 3.62 3.58.27.35-.12 1.55-.57 2.02-1.41 1.44-3.74 1.13-5.41-.22-3.04-2.45-6.28-4.3-10.61-3.63-2.57.4-4.98.68-7.01 2.47-.41.34-1.43.04-2.36.04z" fill="#000000"></path>
        <path d="M194.23 273.47c-2.78-1.69-5.14-3.44-7.77-4.65-4.98-2.29-9.57-.8-13.13 2.56-.58.55-1.1 1.18-1.71 1.69-.94.78-3.38.48-4.42-.84-.49-.62-.62-2.23-.16-2.69 1.74-1.75 3.59-3.59 5.78-4.67 2.45-1.21 5.27-2.04 8-2.28 2.51-.21 5.26.19 7.63 1.05 2.66.97 5.05 2.69 7.47 4.2 2.28 1.43 2.08 3.84-.32 5.03-.61.29-1.23.54-1.37.6z" fill="#000000"></path>
        <path d="M181.45 225.54c-3.29.82-7.28 1.23-9.65 4.99-.27.43-1.5.77-1.9.54-1.23-.71-2.89-1.57-3.19-2.67-.24-.89 1.02-2.53 2.04-3.3 3.85-2.9 8.28-4.76 13.14-4.99 3.76-.18 7.49.48 10.56 3 1.54 1.26 3.24 2.35 4.61 3.76 1.07 1.1 1.15 2.39-.85 2.92-.42.11-.82.46-1.14.78-1.07 1.08-2.01.65-2.71-.32-2.54-3.51-6.26-4.44-10.91-4.71z" fill="#000000"></path>
        <path d="M225.77 294.94c-.94-.79-1.84-1.48-2.67-2.24-3.67-3.39-7.91-3.86-12.59-2.49-2.71.8-5.18 1.81-6.8 4.29-.55.85-1.46 1.33-2.49.21-.79-.86-2.48-1.48-2.54-2.3-.07-.88 1.25-1.9 2.05-2.78 1.73-1.89 3.67-3.49 6.34-4.02 2.08-.42 4.22-1.45 6.19-1.18 1.98.27 3.89-1 5.93.28 1.82 1.15 4.24 1.41 6.09 2.53 1.7 1.03 3.05 2.64 4.46 4.09.68.7.51 1.42-.49 1.88-1.1.48-2.15 1.06-3.48 1.73z" fill="#000000"></path>
        <path d="M230.97 229.15c.83-3.48 3.8-4.76 6.13-6.51 3.38-2.53 7.59-2.26 11.56-2.56 1.08-.08 2.26.33 3.3.73 3.75 1.46 7.52 2.92 9.9 6.4.18.26.46.78.39.85-1.11.99-2.21 2-3.46 2.81-.27.18-1.22-.28-1.61-.67-3.04-3.09-6.62-4.96-11.11-4.55-3.44.32-6.67 1.24-8.98 4.03-1.6 1.92-2.01 1.94-4.29.5-.56-.35-1.15-.65-1.83-1.03z" fill="#000000"></path>
        <path d="M241.38 268.44c-.87.69-1.5 1.14-2.06 1.66-.67.62-1.35 1.26-1.91 1.97-1.48 1.89-4.79 1.69-5.88-.45-.18-.35-.08-1.07.19-1.37 1.43-1.62 2.7-3.58 4.5-4.64 2.77-1.62 5.67-2.92 9.29-2.82 3.66.1 7.21.37 10.32 2.03 2.35 1.25 4.19 3.41 6.19 5.24.19.18.07.91-.14 1.25-1.29 2.15-3.69 2.43-5.58.72-.99-.89-1.91-1.93-3.05-2.57-1.05-.58-2.35-.93-3.56-.98-2.89-.14-5.78-.04-8.31-.04z" fill="#000000"></path>
        <path d="M148.13 241.38c3 .36 6.04.13 8.54 1.17 2.88 1.19 5.35 3.4 7.83 5.37.68.54 1.56 1.94.15 2.68-1.3.68-2.44 2.68-4.4.91-2.61-2.35-5.47-4.57-9.18-4.62-4.3-.05-8.54.46-11.34 4.4-1.28 1.8-1.8 1.76-4.76-.07-1.35-.84-.45-1.81.02-2.74 1.77-3.52 5.34-4.57 8.67-5.88 1.48-.6 3.08-.86 4.47-1.22z" fill="#000000"></path>
        <path d="M285.47 247.96c-.18-.94-.32-1.71-.47-2.48-.49.71-.99 1.42-1.51 2.17-4.73-1.89-9.07-.22-13.25 2.3-.28.17-.52.43-.74.67-2.18 2.35-2.36 2.36-4.97.46-.43-.31-.87-.6-1.79-1.24 1.96-1.84 3.63-3.82 5.69-5.27 4.73-3.33 10.29-3.44 15.71-2.55 2.48.41 4.74 2.22 7.02 3.53.97.55 1.71 1.46 2.6 2.16 1.29 1.01 1.16 1.96-.03 2.91-.63.5-1.2 1.26-1.91 1.43-.84.19-2.07.18-2.66-.29-1.46-1.19-2.64-2.68-3.69-3.8z" fill="#000000"></path>
        <path d="M246.49 230c2.19 1.1 4.44 2.08 6.47 3.38.45.29.48 1.96.05 2.54-.44.6-1.67.81-2.57.89-.49.04-1.07-.51-1.55-.86-2.15-1.57-3.22-1.45-5.11.27-.59.53-1.82 1.1-2.32.85-.83-.42-1.62-1.44-1.8-2.32-.11-.52.9-1.44 1.6-1.88 1.56-1 3.25-1.8 5.23-2.87z" fill="#000000"></path>
        <path d="M181.55 230.41c2.99.05 6.35 2.32 6.96 4.01.55 1.51-.56 1.98-1.41 2.36-.6.27-1.72.12-2.25-.28-2.5-1.91-2.74-1.98-5.53-.24-1.08.67-2.1 1.98-3.39.28-1.15-1.51-1.13-2.98.57-4.01 1.68-1.02 3.67-1.56 5.05-2.12z" fill="#000000"></path>
        <path d="M251.7 279.85c-1.33-.67-2.29-1.13-3.23-1.64-1.82-.98-3.45-.57-4.76.8-1.23 1.29-2.32.98-3.24-.12-.92-1.1-1.18-2.24.24-3.42 3.14-2.6 6.6-2.83 10.16-1.3 1.07.46 2.15 1.76 2.41 2.85.19.77-.99 1.86-1.58 2.83z" fill="#000000"></path>
        <path d="M211.03 256.05c-.17.93-.14 1.75-.51 2.34-.18.29-1.47.38-1.61.17-.57-.9-1.11-1.92-1.24-2.95-.07-.54.6-1.33 1.13-1.76 2.3-1.85 8.07-2.2 10.44-.66 2.05 1.34 2.37 2.54 1.18 4.2-.9 1.25-1.98 1.31-3.12.59-1.34-.86-2.59-1.51-4.32-1.08-.58.14-1.38-.59-1.95-.85z" fill="#000000"></path>
        <path d="M188.68 276.98c-.4.94-.52 1.98-1.05 2.24-.53.26-1.58-.08-2.21-.46-2.55-1.5-3.97-1.56-6.4.31-1.26.97-2.37 1.05-3.34-.1-.95-1.13-.64-2.4.35-3.4 2.69-2.7 7.97-3.22 11.16-1 .7.51.99 1.58 1.49 2.41z" fill="#000000"></path>
        <path d="M150.46 252.23c2.46-.67 3.87 1.2 5.26 2.7.45.48.06 1.92-.3 2.78-.13.31-1.34.34-2.01.24-.71-.11-1.44-.44-2.04-.84-1.85-1.21-3.34-.73-4.94.56-.58.47-1.79.63-2.53.4-1.25-.39-1.3-1.47-.85-2.61 1.04-2.65 3.58-2.69 5.84-3.22.44-.1.94-.01 1.57-.01z" fill="#000000"></path>
        <path d="M214.21 294.53c2.42.46 5.1.62 6.12 3.34.29.77-.3 1.86-.49 2.8-.81-.19-1.83-.16-2.4-.62-2-1.62-4.23-1.67-6.04.23-1.06 1.11-2.05 1.22-3.09.17-1.02-1.03-1.72-2.34-.19-3.34 1.82-1.19 3.44-3.04 6.09-2.58z" fill="#000000"></path>
        <path d="M278.31 252.1c2.28-.07 4.32.37 6.01 2.08 1.11 1.13 1.55 2.21.55 3.46-.94 1.17-1.97.9-3.13-.01-2-1.55-3.98-1.33-6.27.2-.65.43-1.6.44-2.41.64-.09-1.09-.61-2.37-.2-3.22.98-1.99 3.42-3.18 5.45-3.15z" fill="#000000"></path>
        <path d="M148.79 297.34c-.39.56-.67 1.25-1.19 1.67-.95.77-1.96 1.76-3.07 1.95-.91.15-2.1-.68-1.78-2.1.24-1.04.69-1.9 2.07-1.54 1.86.48 2.68-.24 2.43-2.14 3.34-.88 6.38-.57 8.59 2.23.45.57.46 1.93.06 2.56-.57.89-1.65 1.29-2.75.26-.51-.47-1.31-.63-1.95-.99-.66-.36-1.29-.79-1.93-1.18a15 15 0 0 0-.48-.72z" fill="#000000"></path>
        <path d="M77.49 119.16c0 1.11.03 2.22-.01 3.33-.12 3.59.16 7.05 3.04 9.79.28.27.04 1.07.04 1.7-4.94-1.4-7.08-10.77-3.07-14.82z" fill="#000000"></path>
        <path d="M103.69 217.62c.76-.47 1.57-1.4 2.27-1.33 2.85.28 4.99 1.85 6.44 4.23.27.44.14 1.11.2 1.67-.55.03-1.12.17-1.65.08-2.02-.37-4.03-.81-5.93-1.2.3-.31.92-.95 1.94-2-1.28-.58-2.3-1.04-3.32-1.5 0-.01.05.05.05.05z" fill="#000000"></path>
    </g>
</svg>
